<mxfile host="Electron" modified="2023-11-23T09:00:19.257Z" agent="Mozilla/5.0 (Windows NT 10.0; Win64; x64) AppleWebKit/537.36 (KHTML, like Gecko) draw.io/21.7.5 Chrome/114.0.5735.289 Electron/25.8.1 Safari/537.36" etag="0omWRGVPOtVzURRs2RVJ" version="21.7.5" type="device">
  <diagram id="g4bNSqnx32ZHG05jDUJd" name="Page-1">
    <mxGraphModel dx="809" dy="467" grid="1" gridSize="10" guides="1" tooltips="1" connect="1" arrows="1" fold="1" page="1" pageScale="1" pageWidth="827" pageHeight="1169" math="1" shadow="0">
      <root>
        <mxCell id="0" />
        <mxCell id="1" parent="0" />
        <mxCell id="xmXIwSO4iVH_EpL2mEkG-45" style="edgeStyle=orthogonalEdgeStyle;shape=connector;rounded=0;orthogonalLoop=1;jettySize=auto;html=1;exitX=0;exitY=0.5;exitDx=0;exitDy=0;labelBackgroundColor=default;strokeColor=default;fontFamily=Helvetica;fontSize=11;fontColor=default;endArrow=none;endFill=0;" edge="1" parent="1" source="8" target="xmXIwSO4iVH_EpL2mEkG-43">
          <mxGeometry relative="1" as="geometry" />
        </mxCell>
        <mxCell id="xmXIwSO4iVH_EpL2mEkG-53" style="edgeStyle=orthogonalEdgeStyle;shape=connector;rounded=0;orthogonalLoop=1;jettySize=auto;html=1;exitX=1;exitY=1;exitDx=0;exitDy=0;labelBackgroundColor=default;strokeColor=default;fontFamily=Helvetica;fontSize=11;fontColor=default;endArrow=none;endFill=0;" edge="1" parent="1" source="8" target="xmXIwSO4iVH_EpL2mEkG-52">
          <mxGeometry relative="1" as="geometry" />
        </mxCell>
        <mxCell id="8" value="$$Q$$" style="shape=stencil(xZXdToQwEIWfprcGWhbx0qC+R5cdpVm2JaXu6ts7MLChsDUKGBNCMnOYr2dKf5jIm1LWwHh0YeKJcZ5E+MKwpDDrQ9nUUDjKnaVVcl8BKY2z5ggXdXB9idIlWOVaVTyz6BG/aR+RF0ZrhCijG08Z6QiTSmNt9EGwfvjPPrrbUVzjCCdwYCkfU5bxlx+DYx/8N9h4K+y18elETCEix0xookW+l8XxzZp3fZhXBbVXY+GGcJVVVdEi+KapWrbLYyYM8smcIfTThxV5Gz0QKqVHhEUI38QEwde7SDdwkf7eReIj4gWNTBDr+9glq03cr+8jW9DIBi6Ev5fTh/9xkfkuAgfK6IAI7GG8QkK7vyubHR9dlq6dLvEF);whiteSpace=wrap;html=1;labelPosition=right;verticalLabelPosition=middle;align=left;verticalAlign=middle;" parent="1" vertex="1">
          <mxGeometry x="500" y="230" width="40" height="80" as="geometry" />
        </mxCell>
        <mxCell id="xmXIwSO4iVH_EpL2mEkG-65" value="" style="edgeStyle=orthogonalEdgeStyle;shape=connector;rounded=0;orthogonalLoop=1;jettySize=auto;html=1;labelBackgroundColor=default;strokeColor=default;fontFamily=Helvetica;fontSize=11;fontColor=default;endArrow=none;endFill=0;" edge="1" parent="1" source="10" target="xmXIwSO4iVH_EpL2mEkG-63">
          <mxGeometry relative="1" as="geometry" />
        </mxCell>
        <mxCell id="10" value="$$R_2$$" style="pointerEvents=1;verticalLabelPosition=middle;shadow=0;dashed=0;align=left;html=1;verticalAlign=top;shape=mxgraph.electrical.resistors.resistor_1;labelPosition=center;spacingBottom=0;spacingLeft=25;direction=west;spacingTop=10;spacing=0;points=[[0,0.5,0,0,0],[0.5,0,0,0,-3],[0.5,1,0,0,2],[1,0.5,0,0,0]];fillColor=none;rotation=90;horizontal=0;" parent="1" vertex="1">
          <mxGeometry x="330" y="395" width="60" height="20" as="geometry" />
        </mxCell>
        <mxCell id="xmXIwSO4iVH_EpL2mEkG-48" value="" style="edgeStyle=orthogonalEdgeStyle;shape=connector;rounded=0;orthogonalLoop=1;jettySize=auto;html=1;labelBackgroundColor=default;strokeColor=default;fontFamily=Helvetica;fontSize=11;fontColor=default;endArrow=none;endFill=0;" edge="1" parent="1" source="17" target="xmXIwSO4iVH_EpL2mEkG-29">
          <mxGeometry relative="1" as="geometry" />
        </mxCell>
        <mxCell id="17" value="$$V_{CC}$$&lt;br&gt;" style="verticalLabelPosition=middle;verticalAlign=top;shape=mxgraph.electrical.signal_sources.vdd;shadow=0;dashed=0;align=center;strokeWidth=1;fontSize=12;html=1;flipV=1;direction=east;labelPosition=center;spacingBottom=0;spacing=0;spacingTop=-35;fillColor=none;fontFamily=Helvetica;fontColor=default;" parent="1" vertex="1">
          <mxGeometry x="350" y="110" width="20" height="10" as="geometry" />
        </mxCell>
        <mxCell id="xmXIwSO4iVH_EpL2mEkG-57" style="edgeStyle=orthogonalEdgeStyle;shape=connector;rounded=0;orthogonalLoop=1;jettySize=auto;html=1;exitX=1;exitY=0.5;exitDx=0;exitDy=0;entryX=0.65;entryY=0.662;entryDx=0;entryDy=0;entryPerimeter=0;labelBackgroundColor=default;strokeColor=default;fontFamily=Helvetica;fontSize=11;fontColor=default;endArrow=none;endFill=0;" edge="1" parent="1" source="26" target="xmXIwSO4iVH_EpL2mEkG-43">
          <mxGeometry relative="1" as="geometry" />
        </mxCell>
        <mxCell id="26" value="$$V_{in}$$" style="text;html=1;strokeColor=none;fillColor=none;align=center;verticalAlign=middle;whiteSpace=wrap;rounded=0;fontFamily=Helvetica;fontSize=11;fontColor=default;" parent="1" vertex="1">
          <mxGeometry x="240" y="210" width="60" height="30" as="geometry" />
        </mxCell>
        <mxCell id="27" value="$$V_{out}$$" style="text;html=1;strokeColor=none;fillColor=none;align=center;verticalAlign=middle;whiteSpace=wrap;rounded=0;fontFamily=Helvetica;fontSize=11;fontColor=default;" parent="1" vertex="1">
          <mxGeometry x="600" y="315" width="60" height="30" as="geometry" />
        </mxCell>
        <mxCell id="xmXIwSO4iVH_EpL2mEkG-59" style="edgeStyle=orthogonalEdgeStyle;shape=connector;rounded=0;orthogonalLoop=1;jettySize=auto;html=1;exitX=1;exitY=0.5;exitDx=0;exitDy=0;exitPerimeter=0;entryX=0.5;entryY=0.67;entryDx=0;entryDy=0;entryPerimeter=0;labelBackgroundColor=default;strokeColor=default;fontFamily=Helvetica;fontSize=11;fontColor=default;endArrow=none;endFill=0;" edge="1" parent="1" source="r3ycIFUIoCKxY2tOcjky-27" target="xmXIwSO4iVH_EpL2mEkG-58">
          <mxGeometry relative="1" as="geometry" />
        </mxCell>
        <mxCell id="r3ycIFUIoCKxY2tOcjky-27" value="$$R_{E}$$" style="pointerEvents=1;verticalLabelPosition=middle;shadow=0;dashed=0;align=left;html=1;verticalAlign=top;shape=mxgraph.electrical.resistors.resistor_1;labelPosition=center;spacingBottom=0;spacingLeft=25;direction=west;spacingTop=10;spacing=0;points=[[0,0.5,0,0,0],[0.5,0,0,0,-3],[0.5,1,0,0,2],[1,0.5,0,0,0]];fillColor=none;rotation=90;horizontal=0;" parent="1" vertex="1">
          <mxGeometry x="510" y="395" width="60" height="20" as="geometry" />
        </mxCell>
        <mxCell id="xmXIwSO4iVH_EpL2mEkG-36" value="" style="edgeStyle=orthogonalEdgeStyle;shape=connector;rounded=0;orthogonalLoop=1;jettySize=auto;html=1;labelBackgroundColor=default;strokeColor=default;fontFamily=Helvetica;fontSize=11;fontColor=default;endArrow=none;endFill=0;" edge="1" parent="1" source="xmXIwSO4iVH_EpL2mEkG-29" target="xmXIwSO4iVH_EpL2mEkG-35">
          <mxGeometry relative="1" as="geometry" />
        </mxCell>
        <mxCell id="xmXIwSO4iVH_EpL2mEkG-29" value="$$R_1$$" style="pointerEvents=1;verticalLabelPosition=middle;shadow=0;dashed=0;align=left;html=1;verticalAlign=top;shape=mxgraph.electrical.resistors.resistor_1;labelPosition=center;spacingBottom=0;spacingLeft=25;direction=west;spacingTop=10;spacing=0;points=[[0,0.5,0,0,0],[0.5,0,0,0,-3],[0.5,1,0,0,2],[1,0.5,0,0,0]];fillColor=none;rotation=90;horizontal=0;" vertex="1" parent="1">
          <mxGeometry x="330" y="160" width="60" height="20" as="geometry" />
        </mxCell>
        <mxCell id="xmXIwSO4iVH_EpL2mEkG-71" style="edgeStyle=orthogonalEdgeStyle;shape=connector;rounded=0;orthogonalLoop=1;jettySize=auto;html=1;exitX=0.5;exitY=0;exitDx=0;exitDy=0;entryX=0;entryY=0.5;entryDx=0;entryDy=0;entryPerimeter=0;labelBackgroundColor=default;strokeColor=default;fontFamily=Helvetica;fontSize=11;fontColor=default;endArrow=none;endFill=0;" edge="1" parent="1" source="xmXIwSO4iVH_EpL2mEkG-31" target="10">
          <mxGeometry relative="1" as="geometry" />
        </mxCell>
        <mxCell id="xmXIwSO4iVH_EpL2mEkG-31" value="" style="shape=stencil(pZPZDoIwEEW/pq+mtOLyaFD/o8AojdiSUre/tzCgVmji8kIy9zJnbiZTwpO6EBUQRgvC14QxRt3HlRe/FHUFmUXtLIwUaQno1NboA1xkbjuCVAUYaRuXbwhdkYZBCU8yrZSDSK1qz3nxHUxI5XrpFWF0EuOYW1djVbkJR7BgUI1QJWz7NtIpoak8SUV22Bt9UvmwK+jttIER42HLssSNjOTpf6pEs6uB0dtHfYbnBiI6toBxdE8opQoT4k8Ifobp94C3CLN/I/iA+Q8Rpt8T/AgLD7D8IQL7nNBeYeBQ3KMNnVjbNrjRVsWH3gp3);whiteSpace=wrap;html=1;fontFamily=Helvetica;fontSize=11;fontColor=default;" vertex="1" parent="1">
          <mxGeometry x="335" y="455" width="50" height="60" as="geometry" />
        </mxCell>
        <mxCell id="xmXIwSO4iVH_EpL2mEkG-37" value="" style="edgeStyle=orthogonalEdgeStyle;shape=connector;rounded=0;orthogonalLoop=1;jettySize=auto;html=1;labelBackgroundColor=default;strokeColor=default;fontFamily=Helvetica;fontSize=11;fontColor=default;endArrow=none;endFill=0;" edge="1" parent="1" source="xmXIwSO4iVH_EpL2mEkG-33" target="xmXIwSO4iVH_EpL2mEkG-35">
          <mxGeometry relative="1" as="geometry" />
        </mxCell>
        <mxCell id="xmXIwSO4iVH_EpL2mEkG-44" style="edgeStyle=orthogonalEdgeStyle;shape=connector;rounded=0;orthogonalLoop=1;jettySize=auto;html=1;exitX=0;exitY=0.5;exitDx=0;exitDy=0;exitPerimeter=0;labelBackgroundColor=default;strokeColor=default;fontFamily=Helvetica;fontSize=11;fontColor=default;endArrow=none;endFill=0;" edge="1" parent="1" source="xmXIwSO4iVH_EpL2mEkG-33" target="xmXIwSO4iVH_EpL2mEkG-43">
          <mxGeometry relative="1" as="geometry" />
        </mxCell>
        <mxCell id="xmXIwSO4iVH_EpL2mEkG-33" value="$$R_{boot}$$" style="pointerEvents=1;verticalLabelPosition=middle;shadow=0;dashed=0;align=left;html=1;verticalAlign=top;shape=mxgraph.electrical.resistors.resistor_1;labelPosition=center;spacingBottom=0;spacingLeft=25;direction=west;spacingTop=10;spacing=0;points=[[0,0.5,0,0,0],[0.5,0,0,0,-3],[0.5,1,0,0,2],[1,0.5,0,0,0]];fillColor=none;rotation=0;horizontal=1;" vertex="1" parent="1">
          <mxGeometry x="400" y="260" width="60" height="20" as="geometry" />
        </mxCell>
        <mxCell id="xmXIwSO4iVH_EpL2mEkG-35" value="" style="shape=waypoint;sketch=0;fillStyle=solid;size=6;pointerEvents=1;points=[];fillColor=none;resizable=0;rotatable=0;perimeter=centerPerimeter;snapToPoint=1;fontFamily=Helvetica;fontSize=11;fontColor=default;" vertex="1" parent="1">
          <mxGeometry x="350" y="260" width="20" height="20" as="geometry" />
        </mxCell>
        <mxCell id="xmXIwSO4iVH_EpL2mEkG-70" style="edgeStyle=orthogonalEdgeStyle;shape=connector;rounded=0;orthogonalLoop=1;jettySize=auto;html=1;exitX=0.5;exitY=0;exitDx=0;exitDy=0;entryX=0;entryY=0.5;entryDx=0;entryDy=0;entryPerimeter=0;labelBackgroundColor=default;strokeColor=default;fontFamily=Helvetica;fontSize=11;fontColor=default;endArrow=none;endFill=0;" edge="1" parent="1" source="xmXIwSO4iVH_EpL2mEkG-40" target="r3ycIFUIoCKxY2tOcjky-27">
          <mxGeometry relative="1" as="geometry" />
        </mxCell>
        <mxCell id="xmXIwSO4iVH_EpL2mEkG-40" value="" style="shape=stencil(pZPZDoIwEEW/pq+mtOLyaFD/o8AojdiSUre/tzCgVmji8kIy9zJnbiZTwpO6EBUQRgvC14QxRt3HlRe/FHUFmUXtLIwUaQno1NboA1xkbjuCVAUYaRuXbwhdkYZBCU8yrZSDSK1qz3nxHUxI5XrpFWF0EuOYW1djVbkJR7BgUI1QJWz7NtIpoak8SUV22Bt9UvmwK+jttIER42HLssSNjOTpf6pEs6uB0dtHfYbnBiI6toBxdE8opQoT4k8Ifobp94C3CLN/I/iA+Q8Rpt8T/AgLD7D8IQL7nNBeYeBQ3KMNnVjbNrjRVsWH3gp3);whiteSpace=wrap;html=1;fontFamily=Helvetica;fontSize=11;fontColor=default;" vertex="1" parent="1">
          <mxGeometry x="515" y="455" width="50" height="60" as="geometry" />
        </mxCell>
        <mxCell id="xmXIwSO4iVH_EpL2mEkG-43" value="" style="shape=waypoint;sketch=0;fillStyle=solid;size=6;pointerEvents=1;points=[];fillColor=none;resizable=0;rotatable=0;perimeter=centerPerimeter;snapToPoint=1;fontFamily=Helvetica;fontSize=11;fontColor=default;" vertex="1" parent="1">
          <mxGeometry x="470" y="260" width="20" height="20" as="geometry" />
        </mxCell>
        <mxCell id="xmXIwSO4iVH_EpL2mEkG-51" style="edgeStyle=orthogonalEdgeStyle;shape=connector;rounded=0;orthogonalLoop=1;jettySize=auto;html=1;exitX=0.5;exitY=0;exitDx=0;exitDy=0;exitPerimeter=0;entryX=1;entryY=0;entryDx=0;entryDy=0;labelBackgroundColor=default;strokeColor=default;fontFamily=Helvetica;fontSize=11;fontColor=default;endArrow=none;endFill=0;" edge="1" parent="1" source="xmXIwSO4iVH_EpL2mEkG-49" target="8">
          <mxGeometry relative="1" as="geometry" />
        </mxCell>
        <mxCell id="xmXIwSO4iVH_EpL2mEkG-49" value="$$V_{CC}$$&lt;br&gt;" style="verticalLabelPosition=middle;verticalAlign=top;shape=mxgraph.electrical.signal_sources.vdd;shadow=0;dashed=0;align=center;strokeWidth=1;fontSize=12;html=1;flipV=1;direction=east;labelPosition=center;spacingBottom=0;spacing=0;spacingTop=-35;fillColor=none;fontFamily=Helvetica;fontColor=default;" vertex="1" parent="1">
          <mxGeometry x="530" y="110" width="20" height="10" as="geometry" />
        </mxCell>
        <mxCell id="xmXIwSO4iVH_EpL2mEkG-56" value="" style="edgeStyle=orthogonalEdgeStyle;shape=connector;rounded=0;orthogonalLoop=1;jettySize=auto;html=1;labelBackgroundColor=default;strokeColor=default;fontFamily=Helvetica;fontSize=11;fontColor=default;endArrow=none;endFill=0;" edge="1" parent="1" source="xmXIwSO4iVH_EpL2mEkG-52" target="27">
          <mxGeometry relative="1" as="geometry" />
        </mxCell>
        <mxCell id="xmXIwSO4iVH_EpL2mEkG-67" value="" style="edgeStyle=orthogonalEdgeStyle;shape=connector;rounded=0;orthogonalLoop=1;jettySize=auto;html=1;labelBackgroundColor=default;strokeColor=default;fontFamily=Helvetica;fontSize=11;fontColor=default;endArrow=none;endFill=0;" edge="1" parent="1" source="xmXIwSO4iVH_EpL2mEkG-52" target="xmXIwSO4iVH_EpL2mEkG-58">
          <mxGeometry relative="1" as="geometry" />
        </mxCell>
        <mxCell id="xmXIwSO4iVH_EpL2mEkG-52" value="" style="shape=waypoint;sketch=0;fillStyle=solid;size=6;pointerEvents=1;points=[];fillColor=none;resizable=0;rotatable=0;perimeter=centerPerimeter;snapToPoint=1;fontFamily=Helvetica;fontSize=11;fontColor=default;" vertex="1" parent="1">
          <mxGeometry x="530" y="320" width="20" height="20" as="geometry" />
        </mxCell>
        <mxCell id="xmXIwSO4iVH_EpL2mEkG-58" value="" style="shape=waypoint;sketch=0;fillStyle=solid;size=6;pointerEvents=1;points=[];fillColor=none;resizable=0;rotatable=0;perimeter=centerPerimeter;snapToPoint=1;fontFamily=Helvetica;fontSize=11;fontColor=default;" vertex="1" parent="1">
          <mxGeometry x="530" y="345" width="20" height="20" as="geometry" />
        </mxCell>
        <mxCell id="xmXIwSO4iVH_EpL2mEkG-61" value="" style="edgeStyle=orthogonalEdgeStyle;shape=connector;rounded=0;orthogonalLoop=1;jettySize=auto;html=1;labelBackgroundColor=default;strokeColor=default;fontFamily=Helvetica;fontSize=11;fontColor=default;endArrow=none;endFill=0;" edge="1" parent="1" source="xmXIwSO4iVH_EpL2mEkG-60" target="xmXIwSO4iVH_EpL2mEkG-58">
          <mxGeometry relative="1" as="geometry" />
        </mxCell>
        <mxCell id="xmXIwSO4iVH_EpL2mEkG-64" value="" style="edgeStyle=orthogonalEdgeStyle;shape=connector;rounded=0;orthogonalLoop=1;jettySize=auto;html=1;labelBackgroundColor=default;strokeColor=default;fontFamily=Helvetica;fontSize=11;fontColor=default;endArrow=none;endFill=0;" edge="1" parent="1" source="xmXIwSO4iVH_EpL2mEkG-60" target="xmXIwSO4iVH_EpL2mEkG-63">
          <mxGeometry relative="1" as="geometry" />
        </mxCell>
        <mxCell id="xmXIwSO4iVH_EpL2mEkG-60" value="$$C_{boot}$$" style="pointerEvents=1;verticalLabelPosition=middle;shadow=0;dashed=0;align=left;html=1;verticalAlign=top;shape=mxgraph.electrical.capacitors.capacitor_1;labelPosition=center;spacingBottom=0;spacingLeft=25;direction=east;spacing=0;spacingTop=10;points=[[0,0.5,0,0,0],[0.5,0,0,0,-3],[0.5,1,0,0,2],[1,0.5,0,0,0]];fillColor=none;fontFamily=Helvetica;fontSize=11;fontColor=default;" vertex="1" parent="1">
          <mxGeometry x="430" y="345" width="60" height="20" as="geometry" />
        </mxCell>
        <mxCell id="xmXIwSO4iVH_EpL2mEkG-66" value="" style="edgeStyle=orthogonalEdgeStyle;shape=connector;rounded=0;orthogonalLoop=1;jettySize=auto;html=1;labelBackgroundColor=default;strokeColor=default;fontFamily=Helvetica;fontSize=11;fontColor=default;endArrow=none;endFill=0;" edge="1" parent="1" source="xmXIwSO4iVH_EpL2mEkG-63" target="xmXIwSO4iVH_EpL2mEkG-35">
          <mxGeometry relative="1" as="geometry" />
        </mxCell>
        <mxCell id="xmXIwSO4iVH_EpL2mEkG-63" value="" style="shape=waypoint;sketch=0;fillStyle=solid;size=6;pointerEvents=1;points=[];fillColor=none;resizable=0;rotatable=0;perimeter=centerPerimeter;snapToPoint=1;fontFamily=Helvetica;fontSize=11;fontColor=default;" vertex="1" parent="1">
          <mxGeometry x="350" y="345" width="20" height="20" as="geometry" />
        </mxCell>
      </root>
    </mxGraphModel>
  </diagram>
</mxfile>
